# AST/ASF file generated using VICON BodyLanguage
# -----------------------------------------------
:version 1.10
:name VICON
:units
  mass 1.0
  length 0.45
  angle deg
:documentation
   .ast/.asf automatically generated from VICON data using
   VICON BodyBuilder and BodyLanguage model FoxedUp or BRILLIANT.MOD
:root
   order TX TY TZ RX RY RZ
   axis XYZ
   position 0 0 0  
   orientation 0 0 0 
:bonedata
  begin
     id 1 
     name lhipjoint
     direction 0.612567 -0.751349 0.245431 
     length 2.42285 
     axis 0 0 0  XYZ
  end
  begin
     id 2 
     name lfemur
     direction 0.34202 -0.939693 0  
     length 7.11304  
     axis 0 0 20  XYZ
    dof rx ry rz
    limits (-160.0 20.0)
           (-70.0 70.0)
           (-60.0 70.0)
  end
  begin
     id 3 
     name ltibia
     direction 0.34202 -0.939693 0   
     length 7.84529   
     axis 0 0 20   XYZ
    dof rx
    limits (-10.0 170.0)
  end
  begin
     id 4 
     name lfoot
     direction 0.0779239 -0.214094 0.9737   
     length 1.97176   
     axis -90 7.62852e-016 20   XYZ
    dof rx rz
    limits (-45.0 90.0)
           (-70.0 20.0)
  end
  begin
     id 5 
     name ltoes
     direction 1.53565e-011 -4.21709e-011 1   
     length 0.993197   
     axis -90 7.62852e-016 20   XYZ
    dof rx
    limits (-90.0 20.0)
  end
  begin
     id 6 
     name rhipjoint
     direction -0.665722 -0.709315 0.231701   
     length 2.56642  
     axis 0 0 0  XYZ 
  end
  begin
     id 7 
     name rfemur
     direction -0.34202 -0.939693 0   
     length 7.32108   
     axis 0 0 -20   XYZ
    dof rx ry rz
    limits (-160.0 20.0)
           (-70.0 70.0)
           (-70.0 60.0)
  end
  begin
     id 8 
     name rtibia
     direction -0.34202 -0.939693 0   
     length 7.81254   
     axis 0 0 -20   XYZ
    dof rx
    limits (-10.0 170.0)
 end
 begin
     id 9 
     name rfoot
     direction -0.0832806 -0.228812 0.969902   
     length 2.08278  
     axis -90 -7.62852e-016 -20   XYZ
    dof rx rz
    limits (-45.0 90.0)
           (-20.0 70.0)
  end
  begin
     id 10 
     name rtoes
     direction -1.53589e-011 -4.22086e-011 1   
     length 1.04609   
     axis -90 -7.62852e-016 -20   XYZ
    dof rx
    limits (-90.0 20.0)
  end
  begin
     id 11 
     name lowerback
     direction -0.00506013 0.988403 -0.151766   
     length 2.01978   
     axis 0 0 0   XYZ
    dof rx ry rz
    limits (-20.0 45.0)
           (-30.0 30.0)
           (-30.0 30.0)
  end
  begin
     id 12 
     name upperback
     direction -0.00836389 0.99968 0.0238859   
     length 2.01276   
     axis 0 0 0   XYZ
    dof rx ry rz
    limits (-20.0 45.0)
           (-30.0 30.0)
           (-30.0 30.0)
  end
  begin
     id 13 
     name thorax
     direction -0.00684136 0.995386 0.0957043   
     length 2.07303   
     axis 0 0 0   XYZ
    dof rx ry rz
    limits (-20.0 45.0)
           (-30.0 30.0)
           (-30.0 30.0)
  end
  begin
     id 14 
     name lowerneck
     direction -0.0161045 0.999661 0.0204485   
     length 1.91243   
     axis 0 0 0   XYZ
    dof rx ry rz
    limits (-20.0 45.0)
           (-30.0 30.0)
           (-30.0 30.0)
  end
  begin
     id 15 
     name upperneck
     direction 0.0553583 0.990946 -0.122319   
     length 1.91574   
     axis 0 0 0   XYZ
    dof rx ry rz
    limits (-20.0 45.0)
           (-30.0 30.0)
           (-30.0 30.0)
  end
  begin
     id 16
     name head
     direction 0.0180273 0.998839 -0.0446756  
     length 1.92693  
     axis 0 0 0   XYZ
    dof rx ry rz
    limits (-20.0 45.0)
           (-30.0 30.0)
           (-30.0 30.0)
  end
  begin
     id 17 
     name lclavicle
     direction 0.945646 0.319323 -0.0615358  
     length 4.0076  
     axis 0 0 0   XYZ
    dof ry rz
    limits (-20.0 10.0)
           (0.0 20.0)
  end
  begin
     id 18 
     name lhumerus
     direction 1 -4.48967e-011 -2.79996e-027   
     length 5.64147   
     axis 180 -30 -90   XYZ
    dof rx ry rz
    limits (-60.0 90.0)
           (-90.0 90.0)
           (-90.0 90.0)
  end
  begin
     id 19
     name lradius
     direction 1 -4.48976e-011 -9.5122e-027   
     length 2.86444   
     axis 180 -30 -90   XYZ
    dof rx
    limits (-10.0 170.0)
  end
  begin
     id 20
     name lwrist
     direction 1 -4.48983e-011 -1.24047e-026   
     length 1.43222   
     axis 9.05591e-015 90 90   XYZ
    dof ry
    limits (-180.0 0.0)
 end
  begin
     id 21 
     name lhand
     direction 1 -4.4892e-011 -2.48094e-026   
     length 0.722123   
     axis 1.58305e-014 90 90   XYZ
    dof rx rz
    limits (-90.0 90.0)
           (-45.0 45.0)
  end
  begin
     id 22 
     name lfingers
     direction 1 -4.48895e-011 -4.96187e-026   
     length 0.582194   
     axis 3.1661e-014 90 90   XYZ
    dof rx
    limits (0.0 90.0)
  end
  begin
     id 23
     name lthumb
     direction 0.707107 -6.34961e-011 0.707107   
     length 0.835918   
     axis -90 45 2.85299e-015   XYZ
    dof rx rz
    limits (-45.0 45.0)
           (-45.0 45.0)
  end
  begin
     id 24 
     name rclavicle
     direction -0.932635 0.324218 -0.15835   
     length 3.65819  
     axis 0 0 0   XYZ 
    dof ry rz
    limits (-10.0 20.0)
           (-20.0 0.0)
  end
  begin
     id 25 
     name rhumerus
     direction -1 -4.48965e-011 -4.02296e-027  
     length 5.44729   
     axis 180 30 90   XYZ
    dof rx ry rz
    limits (-90.0 60.0)
           (-90.0 90.0)
           (-90.0 90.0)
  end
  begin
     id 26 
     name rradius
     direction -1 -4.48957e-011 -8.81087e-027   
     length 3.08821   
     axis 180 30 90   XYZ
    dof rx
    limits (-10.0 170.0)
  end
  begin
     id 27 
     name rwrist
     direction -1 -4.49015e-011 -1.24047e-026   
     length 1.5441   
     axis 9.05591e-015 -90 -90   XYZ
    dof ry
    limits (-180.0 0.0)
  end
  begin
     id 28
     name rhand
     direction -1 -4.4891e-011 -2.48094e-026   
     length 0.821049   
     axis 1.58305e-014 -90 -90   XYZ
    dof rx rz
    limits (-90.0 90.0)
           (-45.0 45.0)
  end
  begin
     id 29
     name rfingers
     direction -1 -4.48985e-011 -4.96187e-026   
     length 0.661951   
     axis 3.1661e-014 -90 -90   XYZ
    dof rx
    limits (0.0 90.0)
  end
  begin
     id 30
     name rthumb
     direction -0.707107 -6.34906e-011 0.707107   
     length 0.950433   
     axis -90 -45 -2.85299e-015   XYZ
    dof rx rz
    limits (-45.0 45.0)
           (-45.0 45.0)
  end
:hierarchy
  begin
    root lhipjoint rhipjoint lowerback
    lhipjoint lfemur
    lfemur ltibia
    ltibia lfoot
    lfoot ltoes
    rhipjoint rfemur
    rfemur rtibia
    rtibia rfoot
    rfoot rtoes
    lowerback upperback
    upperback thorax
    thorax lowerneck lclavicle rclavicle
    lowerneck upperneck
    upperneck head
    lclavicle lhumerus
    lhumerus lradius
    lradius lwrist
    lwrist lhand lthumb
    lhand lfingers
    rclavicle rhumerus
    rhumerus rradius
    rradius rwrist
    rwrist rhand rthumb
    rhand rfingers
  end

#!OML:ASF F:\VICON\USERDATA\INSTALL\rory3\rory3.ASF
:FULLY-SPECIFIED
:DEGREES
1
root 3.29662 17.6594 0.101208 26.6931 85.6238 26.5628
lowerback 10.0624 -0.332559 4.10466
upperback -1.60487 0.0546227 -0.336532
thorax -7.35611 -0.153877 -2.67921
lowerneck -7.42372 -4.12313 -3.97957
upperneck 7.39132 -5.42478 3.88486
head 4.01121 -2.61853 1.69097
rclavicle -1.54058e-015 -7.95139e-015
rhumerus -37.5191 -0.199971 -72.4516
rradius 62.2689
rwrist 16.3132
rhand -1.41273 21.6135
rfingers 7.12502
rthumb 24.2365 -6.87478
lclavicle -1.54058e-015 -7.95139e-015
lhumerus -32.9888 -16.3411 88.8884
lradius 37.3732
lwrist 34.481
lhand -13.6449 5.87519
lfingers 7.12502
lthumb 12.4715 35.4831
rfemur -4.4037 3.73561 16.3664
rtibia 21.7446
rfoot -20.6449 -5.70062
rtoes -7.25964
lfemur 0.617059 3.00131 -18.7495
ltibia 9.46538
lfoot -10.6302 0.527227
ltoes -3.50635
2
root 3.30402 17.6589 0.0960995 27.8157 85.7826 27.6717
lowerback 9.94959 -0.308986 3.96573
upperback -1.69299 0.0601618 -0.396711
thorax -7.38481 -0.148971 -2.66506
lowerneck -7.4619 -4.11763 -3.89122
upperneck 7.54651 -5.4267 3.85623
head 4.06944 -2.61674 1.66441
rclavicle -5.40446e-016 0
rhumerus -37.9327 -1.14715 -72.72
rradius 61.7979
rwrist 16.8474
rhand -1.44976 21.4535
rfingers 7.12502
rthumb 24.201 -7.03957
lclavicle -5.40446e-016 0
lhumerus -33.1632 -16.1733 88.8587
lradius 37.808
lwrist 34.4638
lhand -13.642 5.81632
lfingers 7.12502
lthumb 12.4743 35.424
rfemur -4.28824 3.69613 16.3566
rtibia 21.6106
rfoot -20.6612 -5.87567
rtoes -7.61102
lfemur 0.543753 2.82257 -18.7646
ltibia 9.55839
lfoot -10.7263 0.571078
ltoes -3.85122
3
root 3.31169 17.6595 0.0901868 27.825 86.0254 27.629
lowerback 9.77244 -0.32089 3.90586
upperback -1.75713 0.0313168 -0.378333
thorax -7.35372 -0.160481 -2.60647
lowerneck -7.54349 -4.10384 -3.86226
upperneck 7.64101 -5.4085 3.82729
head 4.11627 -2.60687 1.64916
rclavicle -7.9576e-015 1.39149e-014
rhumerus -38.229 -1.95182 -72.9507
rradius 61.3013
rwrist 17.3167
rhand -1.48001 21.4348
rfingers 7.12502
rthumb 24.172 -7.06211
lclavicle -7.9576e-015 1.39149e-014
lhumerus -33.1896 -15.7792 88.8039
lradius 38.0897
lwrist 34.2611
lhand -13.5154 5.71694
lfingers 7.12502
lthumb 12.5964 35.3172
rfemur -4.14406 3.62974 16.469
rtibia 21.3716
rfoot -20.6893 -5.93418
rtoes -7.18702
lfemur 0.32936 2.61049 -18.647
ltibia 9.83943
lfoot -10.8505 0.579238
ltoes -3.78443
4
root 3.31893 17.6601 0.0826554 26.9455 86.2561 26.7472
lowerback 9.70466 -0.334961 3.93403
upperback -1.84492 0.0151042 -0.371708
thorax -7.41021 -0.17205 -2.6127
lowerneck -7.56062 -4.1014 -3.89236
upperneck 7.70921 -5.41075 3.91374
head 4.14913 -2.60418 1.68364
rclavicle 3.28616e-015 2.78299e-015
rhumerus -38.5376 -2.84097 -73.1908
rradius 60.7094
rwrist 17.6773
rhand -1.61765 21.5439
rfingers 7.12502
rthumb 24.0401 -6.97049
lclavicle 3.28616e-015 2.78299e-015
lhumerus -33.2629 -15.4647 88.7773
lradius 38.3218
lwrist 34.0625
lhand -13.5074 5.79557
lfingers 7.12502
lthumb 12.604 35.3953
rfemur -3.97295 3.50312 16.6195
rtibia 21.1576
rfoot -20.6211 -6.01841
rtoes -7.51206
lfemur 0.218227 2.43299 -18.4852
ltibia 10.0298
lfoot -10.9485 0.530591
ltoes -3.60818
5
root 3.32725 17.6609 0.0755392 25.6272 86.4527 25.4784
lowerback 9.71558 -0.328883 3.98368
upperback -1.9822 0.0313579 -0.386731
thorax -7.56282 -0.172102 -2.65968
lowerneck -7.38792 -4.11158 -3.92989
upperneck 7.75933 -5.43791 4.04226
head 4.14087 -2.61389 1.73516
rclavicle 4.55652e-015 -9.14409e-015
rhumerus -38.8882 -3.82436 -73.3996
rradius 60.0347
rwrist 18.0362
rhand -1.77634 21.6768
rfingers 7.12502
rthumb 23.8879 -6.85756
lclavicle 4.55652e-015 -9.14409e-015
lhumerus -33.5481 -15.4061 88.8658
lradius 38.6961
lwrist 34.3264
lhand -13.8006 5.99362
lfingers 7.12502
lthumb 12.3214 35.6106
rfemur -3.73999 3.34233 16.7691
rtibia 20.9093
rfoot -20.4779 -6.16191
rtoes -8.52214
lfemur 0.157026 2.36664 -18.3341
ltibia 10.2658
lfoot -11.0879 0.422042
ltoes -3.61688
6
root 3.33557 17.6605 0.0702401 26.3877 86.6385 26.2451
lowerback 9.58644 -0.314502 3.90275
upperback -2.07275 0.0320864 -0.44416
thorax -7.58527 -0.171536 -2.67462
lowerneck -7.31655 -4.11876 -3.888
upperneck 7.85312 -5.46414 4.13036
head 4.16353 -2.62117 1.75705
rclavicle -2.28136e-015 -7.95139e-016
rhumerus -39.0822 -4.84888 -73.6106
rradius 59.2993
rwrist 18.3378
rhand -1.86891 21.746
rfingers 7.12502
rthumb 23.7991 -6.79997
lclavicle -2.28136e-015 -7.95139e-016
lhumerus -33.679 -15.4026 88.951
lradius 38.9793
lwrist 34.8324
lhand -14.2018 6.14147
lfingers 7.12502
lthumb 11.9345 35.7813
rfemur -3.5401 3.23397 16.7986
rtibia 20.6704
rfoot -20.5053 -6.18809
rtoes -7.90972
lfemur 0.0715325 2.33738 -18.3027
ltibia 10.4468
lfoot -11.1363 0.248595
ltoes -4.00182
7
root 3.34206 17.6612 0.0666671 26.1638 86.8724 25.9952
lowerback 9.39927 -0.309152 3.83565
upperback -2.12469 0.0245068 -0.436339
thorax -7.53338 -0.171692 -2.62651
lowerneck -7.35852 -4.13684 -3.90769
upperneck 7.92719 -5.4943 4.211
head 4.20426 -2.63176 1.78564
rclavicle 5.8855e-015 5.96354e-015
rhumerus -39.2245 -5.67976 -73.8003
rradius 58.7203
rwrist 18.2831
rhand -1.69731 21.5755
rfingers 7.12502
rthumb 23.9637 -6.94894
lclavicle 5.8855e-015 5.96354e-015
lhumerus -33.7008 -15.3112 89.0339
lradius 39.1906
lwrist 35.2387
lhand -14.5574 6.24266
lfingers 7.12502
lthumb 11.5916 35.9021
rfemur -3.38452 3.2397 16.9354
rtibia 20.4416
rfoot -20.57 -6.30837
rtoes -7.17029
lfemur -0.0277314 2.30274 -18.1752
ltibia 10.5638
lfoot -11.1582 0.0712226
ltoes -3.77022
8
root 3.35062 17.663 0.0628274 26.4425 87.0818 26.3111
lowerback 9.27603 -0.311719 3.72143
upperback -2.16238 0.0031957 -0.429804
thorax -7.50375 -0.176722 -2.55133
lowerneck -7.37303 -4.15846 -3.93689
upperneck 7.92874 -5.52667 4.28462
head 4.21374 -2.64494 1.81383
rclavicle -2.04997e-016 -5.56597e-015
rhumerus -39.4084 -6.33094 -74.0187
rradius 58.2215
rwrist 17.985
rhand -1.64706 21.3335
rfingers 7.12502
rthumb 24.0119 -7.18455
lclavicle -2.04997e-016 -5.56597e-015
lhumerus -33.7376 -15.2491 89.0891
lradius 39.388
lwrist 35.6378
lhand -14.6915 6.26013
lfingers 7.12502
lthumb 11.4623 35.9268
rfemur -3.16011 3.23788 17.0374
rtibia 20.2343
rfoot -20.5656 -6.57113
rtoes -7.84839
lfemur -0.0181469 2.24376 -18.0976
ltibia 10.6254
lfoot -11.1619 -0.0620798
ltoes -3.70345
9
root 3.36162 17.6635 0.0566679 26.6282 87.2798 26.5317
lowerback 9.13213 -0.329022 3.64253
upperback -2.20011 -0.0343281 -0.426649
thorax -7.46351 -0.191139 -2.49717
lowerneck -7.38794 -4.1667 -3.94889
upperneck 7.95423 -5.54095 4.33063
head 4.22912 -2.64976 1.83065
rclavicle -5.51938e-015 -2.78299e-015
rhumerus -39.5749 -6.8369 -74.2753
rradius 57.7242
rwrist 17.4688
rhand -1.53787 21.0192
rfingers 7.12502
rthumb 24.1166 -7.48509
lclavicle -5.51938e-015 -2.78299e-015
lhumerus -33.7566 -14.9796 89.0446
lradius 39.5569
lwrist 35.909
lhand -14.4694 6.41285
lfingers 7.12502
lthumb 11.6765 36.0675
rfemur -2.9396 3.13556 17.1132
rtibia 20.0458
rfoot -20.5343 -6.74322
rtoes -8.71106
lfemur 0.028392 2.12407 -18.0344
ltibia 10.6615
lfoot -11.196 -0.155691
ltoes -3.72725
10
root 3.37248 17.663 0.0503232 27.9321 87.4005 27.8738
lowerback 8.99642 -0.317893 3.50255
upperback -2.23825 -0.0434118 -0.46263
thorax -7.42603 -0.190008 -2.45445
lowerneck -7.45463 -4.18361 -3.91654
upperneck 8.04966 -5.57078 4.36202
head 4.27834 -2.6603 1.83261
rclavicle 7.09723e-015 5.1684e-015
rhumerus -39.6908 -7.42234 -74.4835
rradius 57.1835
rwrist 17.1023
rhand -1.30114 20.7034
rfingers 7.12502
rthumb 24.3435 -7.77053
lclavicle 7.09723e-015 5.1684e-015
lhumerus -33.7503 -14.6492 88.9508
lradius 39.6592
lwrist 35.7148
lhand -14.2575 6.48704
lfingers 7.12502
lthumb 11.8809 36.13
rfemur -2.73914 3.05344 17.086
rtibia 19.8765
rfoot -20.5586 -6.76303
rtoes -8.60364
lfemur 0.08802 2.03307 -18.0628
ltibia 10.6675
lfoot -11.1964 -0.217784
ltoes -3.88
11
root 3.37797 17.6618 0.0449239 30.1265 87.4994 30.1191
lowerback 8.96231 -0.298563 3.3056
upperback -2.3206 -0.0435375 -0.501096
thorax -7.49351 -0.184456 -2.38408
lowerneck -7.44182 -4.20831 -3.88353
upperneck 8.46983 -5.63759 4.55421
head 3.98539 -2.66664 1.69573
rclavicle 8.19987e-016 -1.39149e-015
rhumerus -39.8684 -7.91172 -74.6733
rradius 56.6527
rwrist 16.7847
rhand -1.28209 20.3683
rfingers 7.12502
rthumb 24.3618 -8.10321
lclavicle 8.19987e-016 -1.39149e-015
lhumerus -33.8028 -14.3507 88.8601
lradius 39.7522
lwrist 35.236
lhand -14.0577 6.80014
lfingers 7.12502
lthumb 12.0735 36.4318
rfemur -2.56348 3.02978 17.0232
rtibia 19.7405
rfoot -20.5823 -6.81176
rtoes -8.25189
lfemur 0.161329 1.92094 -18.1321
ltibia 10.6296
lfoot -11.15 -0.226172
ltoes -3.86916
